<svg id="Layer_1" data-name="Layer 1" xmlns="http://www.w3.org/2000/svg" viewBox="0 0 247 203.36"><defs><style>.cls-1{fill:#89aeff;}.cls-2{fill:#d2dcff;}.cls-3{fill:#6277d7;}.cls-4{fill:#86a2e2;}.cls-5{fill:#aec3ff;}.cls-6{fill:#fe9ecc;}.cls-7{fill:#ffd9e8;}.cls-8{fill:#fcbeb7;}.cls-9{fill:#311643;}.cls-10{fill:#f49795;}.cls-11{fill:none;}.cls-12{fill:#fff;}.cls-13{fill:#f9afab;}.cls-14{fill:#2f3d6c;}.cls-15{fill:#4a5ea3;}.cls-16{fill:#4a62d3;}.cls-17{fill:#ff78ba;}</style></defs><path class="cls-1" d="M194.26,154.79h-67a3.46,3.46,0,0,1-3.41-3.52V85.52A3.46,3.46,0,0,1,127.3,82h67a3.46,3.46,0,0,1,3.41,3.52v65.75A3.46,3.46,0,0,1,194.26,154.79Z" transform="translate(-27 -82)"/><path class="cls-2" d="M165.66,92.54H133.89a1,1,0,0,1-1-1.06h0a1,1,0,0,1,1-1h31.77a1,1,0,0,1,1,1h0A1,1,0,0,1,165.66,92.54Z" transform="translate(-27 -82)"/><path class="cls-2" d="M155.45,97.8H133.89a1,1,0,0,1-1-1h0a1,1,0,0,1,1-1.06h21.56a1,1,0,0,1,1,1.06h0A1,1,0,0,1,155.45,97.8Z" transform="translate(-27 -82)"/><path class="cls-3" d="M139.28,106.44H133.6a.75.75,0,0,1-.73-.76h0a.74.74,0,0,1,.73-.75h5.68a.74.74,0,0,1,.73.75h0A.75.75,0,0,1,139.28,106.44Z" transform="translate(-27 -82)"/><path class="cls-2" d="M180.94,132.34H163.39a.75.75,0,0,1-.74-.76v-3a.75.75,0,0,1,.74-.76h17.55a.75.75,0,0,1,.73.76v3A.75.75,0,0,1,180.94,132.34Z" transform="translate(-27 -82)"/><path class="cls-2" d="M188,140.62H163.39a.75.75,0,0,1-.74-.76v-3a.75.75,0,0,1,.74-.76H188a.75.75,0,0,1,.73.76v3A.75.75,0,0,1,188,140.62Z" transform="translate(-27 -82)"/><path class="cls-2" d="M143.8,145.54a1.39,1.39,0,0,1,1.36-1.41,9.93,9.93,0,1,1,9.62-9.93,1.37,1.37,0,1,1,2.73,0A12.36,12.36,0,1,0,145.15,147,1.38,1.38,0,0,1,143.8,145.54Z" transform="translate(-27 -82)"/><path class="cls-3" d="M156.15,132.79a1.39,1.39,0,0,0-1.37,1.41,9.79,9.79,0,0,1-9.62,9.93,1.41,1.41,0,0,0,0,2.81,12.57,12.57,0,0,0,12.35-12.74A1.39,1.39,0,0,0,156.15,132.79Z" transform="translate(-27 -82)"/><path class="cls-4" d="M72.86,253.48H58a2.07,2.07,0,0,1-2-2.11v-39a2.07,2.07,0,0,1,2-2.11H72.86Z" transform="translate(-27 -82)"/><path class="cls-5" d="M115.84,253.48h-43V210.24h43a2.07,2.07,0,0,1,2,2.11v39A2.07,2.07,0,0,1,115.84,253.48Z" transform="translate(-27 -82)"/><rect class="cls-2" x="50.56" y="134.45" width="35.63" height="13.79"/><rect class="cls-2" x="50.56" y="151.48" width="35.63" height="13.79"/><path class="cls-5" d="M101.81,227.67H88.94a.49.49,0,0,1-.48-.49V227a.49.49,0,0,1,.48-.49h12.87a.48.48,0,0,1,.47.49v.2A.48.48,0,0,1,101.81,227.67Z" transform="translate(-27 -82)"/><path class="cls-5" d="M101.81,244.69H88.94a.49.49,0,0,1-.48-.49V244a.49.49,0,0,1,.48-.49h12.87a.48.48,0,0,1,.47.49v.2A.47.47,0,0,1,101.81,244.69Z" transform="translate(-27 -82)"/><polygon class="cls-2" points="34.73 171.48 34.06 176.35 30.36 203.36 28.91 203.36 31.38 176.27 31.82 171.48 34.73 171.48"/><polygon class="cls-2" points="51.97 171.48 51.22 176.92 47.6 203.36 46.16 203.36 48.57 176.83 49.06 171.48 51.97 171.48"/><polygon class="cls-2" points="90.88 203.36 89.44 203.36 85.97 178.05 85.07 171.48 87.97 171.48 88.58 178.14 90.88 203.36"/><polygon class="cls-2" points="73.64 203.36 72.19 203.36 68.66 177.49 67.83 171.48 70.74 171.48 71.29 177.57 73.64 203.36"/><polygon class="cls-5" points="31.82 171.48 34.73 171.48 34.06 176.35 31.38 176.27 31.82 171.48"/><polygon class="cls-5" points="49.06 171.48 51.97 171.48 51.22 176.92 48.57 176.83 49.06 171.48"/><polygon class="cls-5" points="70.74 171.48 71.29 177.57 68.66 177.49 67.83 171.48 70.74 171.48"/><polygon class="cls-5" points="88.58 178.14 85.97 178.05 85.07 171.48 87.97 171.48 88.58 178.14"/><path class="cls-3" d="M246.88,219.56V219a.34.34,0,0,0-.33-.34H232.81a1.27,1.27,0,0,0-1.25,1.3h0v1h0a1.27,1.27,0,0,0,1.25,1.29h13.74a.33.33,0,0,0,.33-.34v-.61a.34.34,0,0,0-.33-.34H233.32a.51.51,0,0,1-.51-.52h0a.51.51,0,0,1,.51-.52h13.23A.35.35,0,0,0,246.88,219.56Z" transform="translate(-27 -82)"/><path class="cls-2" d="M246.29,219.9v1h-13a.51.51,0,0,1-.5-.52h0a.51.51,0,0,1,.5-.52Z" transform="translate(-27 -82)"/><path class="cls-6" d="M245.9,215.93v-.61a.34.34,0,0,0-.33-.34H233.8a1.27,1.27,0,0,0-1.26,1.29h0v1h0a1.27,1.27,0,0,0,1.26,1.29h11.77a.33.33,0,0,0,.33-.34v-.61a.34.34,0,0,0-.33-.34H234.3a.51.51,0,0,1-.51-.52h0a.51.51,0,0,1,.51-.52h11.27A.35.35,0,0,0,245.9,215.93Z" transform="translate(-27 -82)"/><path class="cls-7" d="M245.47,216.27v1H234.3a.51.51,0,0,1-.51-.52h0a.51.51,0,0,1,.51-.52Z" transform="translate(-27 -82)"/><polygon class="cls-2" points="208.92 142.63 201.63 203.36 200.19 203.36 207.47 142.63 208.92 142.63"/><polygon class="cls-2" points="228.05 203.36 226.61 203.36 220.38 151.41 219.32 142.63 220.77 142.63 221.81 151.28 228.05 203.36"/><polygon class="cls-2" points="136.41 142.63 134.46 158.88 129.13 203.36 127.68 203.36 133 159.01 134.97 142.63 136.41 142.63"/><polygon class="cls-2" points="155.54 203.36 154.1 203.36 148.62 157.65 146.81 142.63 148.26 142.63 150.05 157.52 155.54 203.36"/><polygon class="cls-5" points="134.97 142.63 136.41 142.63 134.46 158.88 133 159.01 134.97 142.63"/><polygon class="cls-5" points="148.26 142.63 150.05 157.52 148.62 157.65 146.81 142.63 148.26 142.63"/><polygon class="cls-5" points="221.81 151.28 220.38 151.41 219.32 142.63 220.77 142.63 221.81 151.28"/><path class="cls-2" d="M251.79,224.63H177.86v-2.39H251.8a1,1,0,0,1,1,1v.4A1,1,0,0,1,251.79,224.63Z" transform="translate(-27 -82)"/><path class="cls-4" d="M177.86,224.63H158.3a1,1,0,0,1-1-1v-.4a1,1,0,0,1,1-1h19.56Z" transform="translate(-27 -82)"/><path class="cls-2" d="M177.85,216.41h6.48a.54.54,0,0,1,.53.61l-.54,4.73a.55.55,0,0,1-.54.49H178.4a.56.56,0,0,1-.54-.49l-.54-4.73A.54.54,0,0,1,177.85,216.41Z" transform="translate(-27 -82)"/><polygon class="cls-3" points="156.32 132.48 156.32 130.33 155.07 132.78 155.07 128.81 154.09 131.31 153.11 128.81 153.11 132.78 151.86 130.33 151.86 132.48 150.05 129.47 150.85 134.41 154.09 134.41 157.33 134.41 158.13 129.47 156.32 132.48"/><polygon class="cls-2" points="203.09 134.1 162.51 134.1 167.03 108.95 207.61 108.95 203.09 134.1"/><polygon class="cls-4" points="182.6 122.99 187.16 122.99 193.16 140.24 185.19 140.24 182.6 122.99"/><path class="cls-4" d="M209.44,221.13H195.89a.45.45,0,0,0-.44.46v.18a.45.45,0,0,0,.44.46h13.55a.45.45,0,0,0,.44-.46v-.18A.45.45,0,0,0,209.44,221.13Z" transform="translate(-27 -82)"/><polygon class="cls-5" points="182.6 122.99 182.6 134.1 184.27 134.1 182.6 122.99"/><path class="cls-8" d="M117.61,151.64c-5.61,1-12.6-1.18-13.48-2.55-2,3.19-3.06,3.09-3.06,3.09v2.39l-.46-.47c-.14-.33-.37-.66-.7-.66-1.85,0-2,5.3,1.13,5.61.06.2.12.4.19.57v8.48h7v-3.33a5.09,5.09,0,0,0,1.33.21c2.77,0,7.47-4.19,8-10.88C117.62,152.84,117.61,151.64,117.61,151.64Z" transform="translate(-27 -82)"/><path class="cls-9" d="M109.1,142.57c-4.84,0-5.8,2.66-5.8,2.66-2.07,0-5.23,3.89-3.32,8.21h0l1.09,1.12v-2.4s1,.11,3.07-3.09c.87,1.37,7.86,3.52,13.47,2.56,0,0,0,1.19,0,2.45h0C119.68,147.85,115.48,142.57,109.1,142.57Z" transform="translate(-27 -82)"/><path class="cls-9" d="M107,154.83a.39.39,0,0,1-.39-.4v-.75a.39.39,0,1,1,.77,0v.75A.4.4,0,0,1,107,154.83Z" transform="translate(-27 -82)"/><path class="cls-9" d="M114.19,154.83a.4.4,0,0,1-.39-.4v-.75a.39.39,0,1,1,.78,0v.75A.41.41,0,0,1,114.19,154.83Z" transform="translate(-27 -82)"/><path class="cls-9" d="M109.86,160.58a2.17,2.17,0,0,1-1.44-.51,1.83,1.83,0,0,1-.51-.66.2.2,0,0,1,.09-.25.17.17,0,0,1,.23.1h0a1.81,1.81,0,0,0,1.94.93.18.18,0,0,1,.19.16.19.19,0,0,1-.15.21Z" transform="translate(-27 -82)"/><ellipse class="cls-10" cx="77.45" cy="75.26" rx="1.91" ry="1.97"/><path class="cls-10" d="M117.39,155.62a14.42,14.42,0,0,1-1.16,3.61,2,2,0,0,1-1.82-2,1.94,1.94,0,0,1,1.91-2A1.86,1.86,0,0,1,117.39,155.62Z" transform="translate(-27 -82)"/><ellipse class="cls-11" cx="80.02" cy="72.05" rx="2.36" ry="2.43"/><ellipse class="cls-11" cx="87.19" cy="72.05" rx="2.36" ry="2.43"/><path class="cls-12" d="M114.19,151.26a2.74,2.74,0,0,0-2.69,2.5,2,2,0,0,0-1.79,0,2.75,2.75,0,1,0,0,.4,1.7,1.7,0,0,1,1.75,0,2.71,2.71,0,1,0,2.71-2.91ZM107,156.48a2.43,2.43,0,1,1,2.35-2.43A2.4,2.4,0,0,1,107,156.48Zm7.17,0a2.43,2.43,0,1,1,2.36-2.43A2.4,2.4,0,0,1,114.19,156.48Z" transform="translate(-27 -82)"/><path class="cls-13" d="M108.24,168.1v-3.34a15.42,15.42,0,0,1-4.74-2.6Z" transform="translate(-27 -82)"/><polygon class="cls-3" points="98 193.72 90.58 193.72 83.38 154.23 78.09 137.11 65.31 193.72 57.88 193.72 64.8 130.21 92.23 130.21 98 193.72"/><path class="cls-14" d="M118.17,278.8v5.41a1.13,1.13,0,0,0,1.11,1.15h14.88a.26.26,0,0,0,.25-.27v-1a1.18,1.18,0,0,0-.65-1.07l-8.39-4.18Z" transform="translate(-27 -82)"/><path class="cls-14" d="M91.5,278.8v5.41a1.14,1.14,0,0,1-1.11,1.15H75.51a.27.27,0,0,1-.26-.27v-1a1.19,1.19,0,0,1,.66-1.07l8.38-4.18Z" transform="translate(-27 -82)"/><polygon class="cls-8" points="90.58 193.72 91.14 196.8 98.37 196.8 98 193.72 90.58 193.72"/><polygon class="cls-8" points="57.88 193.72 57.29 196.8 64.5 196.8 65.31 193.72 57.88 193.72"/><polyline class="cls-15" points="64.65 131.57 92.5 133.19 92.23 130.21 64.8 130.21"/><path class="cls-8" d="M93.11,182.29" transform="translate(-27 -82)"/><line class="cls-11" x1="58.35" y1="96.74" x2="64.68" y2="101.75"/><path class="cls-1" d="M108.24,165.25,118.85,170a4.4,4.4,0,0,1,1.9,1.65l4.25,6.6-6,5.45-1.6-1.41,1.82,29.92H91.8l1.68-19.51-.37-10.41-1.43,1.46-6.32-5,3.4-5.71a8.56,8.56,0,0,1,3.5-3.28l9-4.49S105.31,168,108.24,165.25Z" transform="translate(-27 -82)"/><path class="cls-12" d="M110.2,166.13a7.8,7.8,0,0,1-10.28-.21l-.28.13a8.11,8.11,0,0,0,10.85.21Z" transform="translate(-27 -82)"/><path class="cls-16" d="M91.92,170.68a2.39,2.39,0,0,1-2.36,2.43,2.29,2.29,0,0,1-.78-.14,8.7,8.7,0,0,1,3-3A2.32,2.32,0,0,1,91.92,170.68Z" transform="translate(-27 -82)"/><path class="cls-16" d="M121.38,172.62a2.26,2.26,0,0,1-1.07.27,2.4,2.4,0,0,1-2.36-2.43,2.63,2.63,0,0,1,.13-.8l.76.34a4.34,4.34,0,0,1,1.91,1.64Z" transform="translate(-27 -82)"/><ellipse class="cls-15" cx="66.34" cy="155.47" rx="3.55" ry="3.66"/><ellipse class="cls-15" cx="90.05" cy="155.47" rx="3.55" ry="3.66"/><path class="cls-8" d="M155.31,171.09,155,171l0-.18a.82.82,0,0,0-.73-.64l-4.18-.29-2.9-1.22,1.62-2.09a.85.85,0,0,0-.09-1.14l-3.42,2.72a3.08,3.08,0,0,0-.81,1l-1.07,2h0l-15.64,11.28L125,178.25l-6,5.45,7.51,6.84a1.13,1.13,0,0,0,1.54,0l17.6-16.33,3.37.33a5.77,5.77,0,0,0,2.26-.24l1.79-.55a.56.56,0,0,0,.35-.74l1.27-.26a.53.53,0,0,0,.44-.5l0-.21h.07a.47.47,0,0,0,.46-.47A.49.49,0,0,0,155.31,171.09Z" transform="translate(-27 -82)"/><path class="cls-8" d="M97.9,209.92l-2.79-1.28a.86.86,0,0,1-.42-.46l-.4-1.15,1.41.36.45,1a.64.64,0,0,0,.86.34l-.59-1.83a1.2,1.2,0,0,0-.59-.66l-3-1.5-5.08-17,3.88-4-6.32-5-3.7,6.64a3.45,3.45,0,0,0-.17,3l10.27,24.22,2,.1a.66.66,0,0,0,.6-.33l.22-.38,1.07.09a.66.66,0,0,0,.6-.27l.25-.35.15,0a.9.9,0,0,0,1-.47l.75.26A1.13,1.13,0,0,0,97.9,209.92Z" transform="translate(-27 -82)"/><path class="cls-13" d="M83.81,186.92a2.44,2.44,0,0,1-1.92,2.41l-.41-1a3.45,3.45,0,0,1,.17-3l.46-.82A2.44,2.44,0,0,1,83.81,186.92Z" transform="translate(-27 -82)"/><path class="cls-13" d="M129.75,189l-1.7,1.58a1.14,1.14,0,0,1-1.54,0l-1.66-1.47a2.79,2.79,0,0,1,4.9-.12Z" transform="translate(-27 -82)"/><path class="cls-9" d="M204,155.32v12.76h20.36V152.59c0-6.13-4.78-7.2-4.78-7.2s-1.74-2.88-6.8-2.88c-6.09,0-10.14,3.85-10.14,8.6A6.7,6.7,0,0,0,204,155.32Zm.1-2.12A5.32,5.32,0,0,0,207,149c1.69,2.89,6.87,7.05,14.57,4.51h.07c1.83,0,2,5.25-1.12,5.56l-.14.43v8.55h-7v-3.33a5,5,0,0,1-1.37.22C209.17,165,204.17,160.41,204.06,153.2Z" transform="translate(-27 -82)"/><path class="cls-8" d="M213.42,165.54v-.78a5,5,0,0,1-1.37.22c-2.88,0-7.88-4.57-8-11.78A5.32,5.32,0,0,0,207,149c1.7,2.89,6.88,7.05,14.57,4.51h.08c1.83,0,2,5.25-1.13,5.56a4.34,4.34,0,0,1-.14.43v5.75l5.45,2.65v6.93H207.73v-7.55l5.69-1.78Z" transform="translate(-27 -82)"/><path class="cls-13" d="M207.73,174.86v-7.55l5.69-1.77v-.78a15.74,15.74,0,0,0,4.79-2.67Z" transform="translate(-27 -82)"/><ellipse class="cls-10" cx="190.14" cy="75.33" rx="1.9" ry="1.96"/><path class="cls-10" d="M204.3,155.7a14.19,14.19,0,0,0,1.16,3.58,2,2,0,0,0-.1-3.91A2,2,0,0,0,204.3,155.7Z" transform="translate(-27 -82)"/><ellipse class="cls-11" cx="180.52" cy="72.15" rx="2.34" ry="2.41"/><ellipse class="cls-11" cx="187.63" cy="72.15" rx="2.34" ry="2.41"/><path class="cls-12" d="M204.83,154.15a2.69,2.69,0,1,0,5.37.11,1.69,1.69,0,0,1,1.74,0,2.74,2.74,0,1,0,0-.4,2.05,2.05,0,0,0-1.77,0,2.68,2.68,0,0,0-5.35.3Zm7.46,0a2.34,2.34,0,1,1,2.33,2.41A2.37,2.37,0,0,1,212.29,154.15Zm-7.11,0a2.34,2.34,0,1,1,2.33,2.41A2.37,2.37,0,0,1,205.18,154.15Z" transform="translate(-27 -82)"/><path class="cls-9" d="M207.51,154.92a.4.4,0,0,0,.39-.4v-.74a.39.39,0,0,0-.39-.39.38.38,0,0,0-.38.39v.74A.39.39,0,0,0,207.51,154.92Z" transform="translate(-27 -82)"/><path class="cls-9" d="M214.51,154.92a.39.39,0,0,0,.38-.4v-.74a.39.39,0,1,0-.77,0v.74A.41.41,0,0,0,214.51,154.92Z" transform="translate(-27 -82)"/><path class="cls-9" d="M211.77,160.62a2.14,2.14,0,0,0,1.44-.51,2.06,2.06,0,0,0,.51-.65.18.18,0,0,0-.09-.23.19.19,0,0,0-.24.08h0a1.77,1.77,0,0,1-1.92.93.18.18,0,0,0-.19.16.18.18,0,0,0,.16.2A1.83,1.83,0,0,0,211.77,160.62Z" transform="translate(-27 -82)"/><polygon class="cls-8" points="173.31 193.69 172.59 196.77 164.74 199.31 165.87 193.69 173.31 193.69"/><polygon class="cls-8" points="199.74 193.69 199.52 197.5 200.01 197.68 200.34 199.31 192.5 196.77 192.3 193.69 199.74 193.69"/><path class="cls-14" d="M185.69,282.51l6.38-2.83-.32,1.63,7.84-2.54v2.32a2.34,2.34,0,0,1-1.06,2l-.68,2a.42.42,0,0,1-.39.29.42.42,0,0,1-.42-.43v-1.29l-5.36,1.72h-5.42a1.45,1.45,0,0,1-1.43-1.47h0A1.48,1.48,0,0,1,185.69,282.51Z" transform="translate(-27 -82)"/><path class="cls-14" d="M219.49,281.07v-2.32l7.84,2.56-.33-1.63,6.37,2.84a1.49,1.49,0,0,1,.87,1.36h0a1.47,1.47,0,0,1-1.44,1.47l-5.42,0-5.54-1.8v1.36a.42.42,0,0,1-.41.43A.41.41,0,0,1,221,285l-.74-2.18A2.32,2.32,0,0,1,219.49,281.07Z" transform="translate(-27 -82)"/><path class="cls-3" d="M225.55,198.14l2.89,12.63a40.55,40.55,0,0,1,1,11.15l-2.69,53.77h-7.44l-3.17-55.8-15.82,55.8h-7.44L206,198.14Z" transform="translate(-27 -82)"/><path class="cls-12" d="M215.71,171.45c-1.32,0-2.38-1.31-3.09-2.64h7.53C219,170.13,217.43,171.45,215.71,171.45Z" transform="translate(-27 -82)"/><path class="cls-6" d="M201.62,171.55a9,9,0,0,1,5-3.88l5-1.57a9.78,9.78,0,0,0,1,2.71c.71,1.33,1.77,2.64,3.09,2.64,1.72,0,3.29-1.32,4.44-2.64a16,16,0,0,0,1.89-2.7l5.19,2.48a7.91,7.91,0,0,1,4.25,5.31l3.82,15.86h-7l-1.73-6.16-1,14.54H206l-1.78-15.47L199.52,187l-3.87-5.85Z" transform="translate(-27 -82)"/><path class="cls-8" d="M173.39,165.54l.3,0,.05-.19a.81.81,0,0,1,.74-.63l4.18-.3,2.91-1.22L180,161.06a.85.85,0,0,1,.08-1.14l3.43,2.72a3.11,3.11,0,0,1,.82,1l.94,1.77h0L199.52,187l-2,1.85a3.26,3.26,0,0,1-5.2-1l-9.29-19.21-3.38.33a5.58,5.58,0,0,1-2.26-.23l-1.79-.56a.55.55,0,0,1-.35-.74l-1.27-.25a.57.57,0,0,1-.45-.5l0-.21h-.08A.46.46,0,0,1,173,166h0A.45.45,0,0,1,173.39,165.54Z" transform="translate(-27 -82)"/><polygon class="cls-17" points="168.64 99.14 174.08 103.54 172.52 104.99 168.64 99.14"/><path class="cls-12" d="M215.52,173.33a6.27,6.27,0,0,0,3.29-1,11.72,11.72,0,0,0,2.57-2.22,18.35,18.35,0,0,0,2.3-3.22l-.29-.13a18.4,18.4,0,0,1-2.24,3.13,11.83,11.83,0,0,1-2.5,2.16,6,6,0,0,1-3.13,1,3.8,3.8,0,0,1-2.6-1,6.64,6.64,0,0,1-1.59-2.22,12.92,12.92,0,0,1-1-3.29l-.31.09a12.47,12.47,0,0,0,1,3.34,7.05,7.05,0,0,0,1.67,2.33A4.13,4.13,0,0,0,215.52,173.33Z" transform="translate(-27 -82)"/><ellipse class="cls-15" cx="176.84" cy="155.37" rx="3.56" ry="3.67"/><ellipse class="cls-15" cx="195.49" cy="155.37" rx="3.56" ry="3.67"/><path class="cls-17" d="M202.1,170.85a2.26,2.26,0,0,0,1.26.38,2.31,2.31,0,0,0,2.27-2.34,2.63,2.63,0,0,0-.13-.8A9.19,9.19,0,0,0,202.1,170.85Z" transform="translate(-27 -82)"/><path class="cls-17" d="M227.2,170.22a2.32,2.32,0,0,0,2.27,2.35,2.2,2.2,0,0,0,1.35-.46,7.92,7.92,0,0,0-3.16-3.3A2.36,2.36,0,0,0,227.2,170.22Z" transform="translate(-27 -82)"/><path class="cls-15" d="M220,202.55l-16.32-.64a.53.53,0,0,1-.51-.57l.87-23.85a.54.54,0,0,1,.55-.53l16.33.64a.53.53,0,0,1,.51.57L220.6,202A.55.55,0,0,1,220,202.55Z" transform="translate(-27 -82)"/><path class="cls-15" d="M220.09,201.26l-16.24,1.81a.54.54,0,0,1-.59-.48l-2.48-23.74a.54.54,0,0,1,.47-.6l16.24-1.81a.53.53,0,0,1,.59.48l2.49,23.73A.55.55,0,0,1,220.09,201.26Z" transform="translate(-27 -82)"/><path class="cls-8" d="M200.77,191.78a1.22,1.22,0,0,1,.38-.83l.31-.29v-.15a1.13,1.13,0,0,1,1.05-1l2-.1-1-1.66a.5.5,0,0,1-.06-.38h0a.46.46,0,0,1,.69-.28l5.62,3.66,18.57-1h7l.85,3.1a3.51,3.51,0,0,1-3.67,4.49l-22.77-2.44-6.48,1-.29-.08a1.17,1.17,0,0,1-.85-1.13v-.41h0a1.19,1.19,0,0,1-.67-1.12v-.24l-.24-.22A1.2,1.2,0,0,1,200.77,191.78Z" transform="translate(-27 -82)"/><path class="cls-13" d="M231.91,195.29a2.45,2.45,0,0,0,1.11,2.07,3.51,3.51,0,0,0,3.26-3.33,2.34,2.34,0,0,0-2-1.17A2.39,2.39,0,0,0,231.91,195.29Z" transform="translate(-27 -82)"/><path class="cls-13" d="M192.8,188.54a3.25,3.25,0,0,0,4.6.44,2.34,2.34,0,0,0-4.6-.44Z" transform="translate(-27 -82)"/><path class="cls-15" d="M219.21,202.51l-14.5,3.08s.45-2.66.45-2.66l6.37-.72Z" transform="translate(-27 -82)"/><polygon class="cls-14" points="192.53 95.54 192.47 108.22 191.14 95.49 192.53 95.54"/><path class="cls-6" d="M42.56,261.05c5.09-9.61-11-14.13-14.84-10.31S36.68,272.15,42.56,261.05Z" transform="translate(-27 -82)"/><path class="cls-6" d="M49.31,258.12c10,0,5.47-18.42,1.2-18.42C45.16,239.7,37.78,258.12,49.31,258.12Z" transform="translate(-27 -82)"/><path class="cls-6" d="M57,264.8c8.23,6.91,15.46-8.56,12.54-13.17S47.5,256.81,57,264.8Z" transform="translate(-27 -82)"/><path class="cls-17" d="M46.51,269.37a30.63,30.63,0,0,0-6-9.18,34.29,34.29,0,0,0-9.2-7,.27.27,0,0,0-.37.14.29.29,0,0,0,.14.38,33.7,33.7,0,0,1,9,6.85,30.11,30.11,0,0,1,5.92,9c.16.37.3.74.44,1.12H47C46.87,270.27,46.7,269.82,46.51,269.37Z" transform="translate(-27 -82)"/><path class="cls-17" d="M50.26,243.47a.27.27,0,0,0-.24-.31.28.28,0,0,0-.31.25,255.74,255.74,0,0,0-1.34,27.32h.55A261.16,261.16,0,0,1,50.26,243.47Z" transform="translate(-27 -82)"/><path class="cls-17" d="M66.78,253.69a.29.29,0,0,0-.39-.08A53.52,53.52,0,0,0,58.22,261a41.9,41.9,0,0,0-6.66,9.73h.62a41.52,41.52,0,0,1,6.44-9.33,51.46,51.46,0,0,1,8.08-7.3A.3.3,0,0,0,66.78,253.69Z" transform="translate(-27 -82)"/><path class="cls-2" d="M48.92,270.72H38.7a.45.45,0,0,0-.42.59l.49,1.55.25.78,3.54,11.2a.7.7,0,0,0,.68.51H56a.74.74,0,0,0,.68-.51l3.54-11.2.24-.78.49-1.55a.45.45,0,0,0-.41-.59H48.92Z" transform="translate(-27 -82)"/><polygon class="cls-5" points="33.47 190.86 33.22 191.65 12.02 191.65 11.77 190.86 33.47 190.86"/><path class="cls-2" d="M87.82,140.43v18.2a1.14,1.14,0,0,1-1.12,1.16H65.48a1.15,1.15,0,0,1-1.13-1.16v-18.2a1.16,1.16,0,0,1,1.13-1.17H86.7A1.15,1.15,0,0,1,87.82,140.43Z" transform="translate(-27 -82)"/><path class="cls-3" d="M87.82,140.43v3.43H64.35v-3.43a1.15,1.15,0,0,1,1.12-1.17H86.69A1.15,1.15,0,0,1,87.82,140.43Z" transform="translate(-27 -82)"/><path class="cls-3" d="M70.71,140.72h0a.59.59,0,0,1-.58-.6v-1.71a.59.59,0,0,1,.58-.6h0a.6.6,0,0,1,.59.6v1.71A.61.61,0,0,1,70.71,140.72Z" transform="translate(-27 -82)"/><path class="cls-3" d="M81.46,140.72h0a.59.59,0,0,1-.58-.6v-1.71a.59.59,0,0,1,.58-.6h0a.6.6,0,0,1,.59.6v1.71A.6.6,0,0,1,81.46,140.72Z" transform="translate(-27 -82)"/><path class="cls-3" d="M71.05,152.34,73.56,150a4.91,4.91,0,0,0,.38-.4.78.78,0,0,0,.19-.53.67.67,0,0,0-.23-.53.86.86,0,0,0-.56-.19.77.77,0,0,0-.6.24,1,1,0,0,0-.24.6l-1.36-.1a2.21,2.21,0,0,1,.21-.9,2,2,0,0,1,.48-.64,2.3,2.3,0,0,1,.71-.38,3.07,3.07,0,0,1,.88-.12,2.64,2.64,0,0,1,.81.12,2.09,2.09,0,0,1,.67.38,1.84,1.84,0,0,1,.44.62,2.23,2.23,0,0,1,.16.88,2.15,2.15,0,0,1-.07.58,2.38,2.38,0,0,1-.17.47,2.6,2.6,0,0,1-.27.38,3.73,3.73,0,0,1-.34.35l-2,1.74h2.86v1.24h-4.5Z" transform="translate(-27 -82)"/><path class="cls-3" d="M78.78,151.45l-.22.05a.86.86,0,0,1-.23,0,2.09,2.09,0,0,1-.83-.17,1.8,1.8,0,0,1-.63-.46,2,2,0,0,1-.42-.69,2.55,2.55,0,0,1-.14-.84,2.19,2.19,0,0,1,.19-.94,2.05,2.05,0,0,1,.51-.72,2.44,2.44,0,0,1,.76-.47,2.87,2.87,0,0,1,1.89,0,2.61,2.61,0,0,1,.77.47,2.17,2.17,0,0,1,.69,1.66,3.45,3.45,0,0,1-.47,1.71c-.1.16-.19.33-.3.5l-1.41,2.27H77.27Zm-1.1-2a1,1,0,0,0,.29.75,1,1,0,0,0,.75.3,1,1,0,0,0,.75-.3,1,1,0,0,0,.28-.75,1,1,0,0,0-1-1,1,1,0,0,0-.75.3A1,1,0,0,0,77.68,149.4Z" transform="translate(-27 -82)"/><path class="cls-5" d="M78.78,157.33H73.39a.23.23,0,0,1-.23-.24h0a.24.24,0,0,1,.23-.25h5.39a.25.25,0,0,1,.24.25h0A.24.24,0,0,1,78.78,157.33Z" transform="translate(-27 -82)"/><polygon class="cls-2" points="237.25 164.91 236.29 173.15 235.13 183.04 234.4 189.27 234.16 191.37 233.43 197.59 232.81 202.84 231.36 202.84 232.7 191.37 233.43 185.15 233.68 183.04 234.4 176.82 234.4 176.82 234.89 172.69 235.8 164.91 237.25 164.91"/><polygon class="cls-2" points="247 202.84 245.54 202.84 242.3 175.11 241.11 164.91 242.57 164.91 243.82 175.6 247 202.84"/><polygon class="cls-2" points="227.7 164.91 227.09 170.15 224.6 191.37 223.88 197.59 223.26 202.84 221.81 202.84 223.15 191.37 223.88 185.15 225.69 169.69 226.24 164.91 227.7 164.91"/><polygon class="cls-2" points="237.45 202.84 235.99 202.84 234.4 189.27 233.68 183.04 232.37 171.87 231.56 164.91 233.01 164.91 233.88 172.37 234.4 176.82 234.4 176.82 235.13 183.04 237.45 202.84"/><path class="cls-2" d="M270.55,246.91H251.66a1.16,1.16,0,0,1-1.13-1.17v-.07a1.15,1.15,0,0,1,1.13-1.17h18.89a1.15,1.15,0,0,1,1.13,1.17v.07A1.16,1.16,0,0,1,270.55,246.91Z" transform="translate(-27 -82)"/><path class="cls-4" d="M261.44,246.91h-9.78a1.16,1.16,0,0,1-1.13-1.17v-.07a1.15,1.15,0,0,1,1.13-1.17h9.78a1.15,1.15,0,0,1,1.13,1.17v.07A1.14,1.14,0,0,1,261.44,246.91Z" transform="translate(-27 -82)"/><path class="cls-2" d="M257.84,238.63h6.53a.55.55,0,0,1,.53.62l-.55,4.76a.54.54,0,0,1-.53.48h-5.43a.53.53,0,0,1-.53-.48l-.55-4.76A.55.55,0,0,1,257.84,238.63Z" transform="translate(-27 -82)"/><polygon class="cls-6" points="236.34 154.69 236.34 152.53 235.09 154.98 235.09 150.99 234.1 153.51 233.12 150.99 233.12 154.98 231.86 152.53 231.86 154.69 230.03 151.66 230.84 156.63 234.1 156.63 237.37 156.63 238.17 151.66 236.34 154.69"/><polygon class="cls-5" points="227.7 164.91 227.09 170.15 225.69 169.69 226.24 164.91 227.7 164.91"/><polygon class="cls-5" points="233.88 172.37 232.37 171.87 231.56 164.91 233.01 164.91 233.88 172.37"/><polygon class="cls-5" points="237.25 164.91 236.29 173.15 234.89 172.69 235.8 164.91 237.25 164.91"/><polygon class="cls-5" points="243.82 175.6 242.3 175.11 241.11 164.91 242.57 164.91 243.82 175.6"/></svg>